<svg xmlns="http://www.w3.org/2000/svg" viewBox="0 0 512 512">
  <defs>
    <linearGradient id="g" x1="0" y1="0" x2="1" y2="1">
      <stop offset="0" stop-color="#1d2a33" />
      <stop offset="1" stop-color="#0b0f12" />
    </linearGradient>
  </defs>
  <rect width="512" height="512" rx="96" fill="url(#g)" />
  <path
    d="M332 128c-52 22-88 73-88 131 0 79 61 141 137 141 12 0 24-2 35-5-28 33-70 54-117 54-83 0-150-68-150-151 0-66 41-123 98-145-4 12-6 24-6 37 0 46 37 83 83 83 22 0 42-8 57-21-14 2-29 1-49-6z"
    fill="#d8c08a"
  />
  <circle cx="344" cy="184" r="10" fill="#d8c08a" />
</svg>
